<svg id="Layer_1" data-name="Layer 1" xmlns="http://www.w3.org/2000/svg" xmlns:xlink="http://www.w3.org/1999/xlink" viewBox="0 0 463.643 100.433"><defs><style>.cls-1,.cls-2,.cls-3,.cls-4,.cls-5,.cls-6,.cls-7{isolation:isolate;}.cls-2,.cls-3,.cls-4,.cls-5,.cls-6,.cls-7{font-size:62.268px;font-family:ProductSans-Bold, Product Sans;font-weight:700;}.cls-2,.cls-3,.cls-4,.cls-5,.cls-6,.cls-7,.cls-8{fill:#fff;}.cls-2{letter-spacing:0.045em;}.cls-3{letter-spacing:0.075em;}.cls-4{letter-spacing:0.05em;}.cls-5{letter-spacing:0.065em;}.cls-6{letter-spacing:0.07em;}.cls-7{letter-spacing:0.075em;}.cls-9{fill:url(#linear-gradient);}</style><linearGradient id="linear-gradient" x1="13.662" y1="61.732" x2="71.887" y2="61.732" gradientTransform="matrix(1, 0, 0, -1, 0, 102)" gradientUnits="userSpaceOnUse"><stop offset="0" stop-color="#5044ff"/><stop offset="0.353" stop-color="#8670ff"/><stop offset="0.791" stop-color="#c3a3ff"/><stop offset="1" stop-color="#dbb7ff"/></linearGradient></defs><g id="OBJECTS"><g class="cls-1"><text class="cls-2" transform="translate(114.128 70.432)">T</text><text class="cls-3" transform="translate(153.232 70.432)">ime</text><text class="cls-4" transform="translate(272.786 70.432)">S</text><text class="cls-5" transform="translate(311.704 70.432)">t</text><text class="cls-6" transform="translate(340.72 70.432)">a</text><text class="cls-7" transform="translate(378.392 70.432)">ck</text></g><path class="cls-8" d="M96.7,44.378,89.714,32.286H48.919c-3.761,0-7.556,1.97-7.556,6.37a7.564,7.564,0,0,0,7.556,7.555H61.9A15.835,15.835,0,0,1,69.944,48.4h0a15.927,15.927,0,0,1,7.8,13.657c0,8.5-6.666,14.666-15.85,14.666H42.243A6.233,6.233,0,0,1,46.5,82.645a6.089,6.089,0,0,0,6.088,5.965H70.9A12.411,12.411,0,0,0,81.647,82.4L96.7,56.34A11.966,11.966,0,0,0,96.7,44.378Z"/><path class="cls-9" d="M69.452,62.062a7.6,7.6,0,0,0-3.722-6.513h0a7.531,7.531,0,0,0-3.83-1.041H48.919A15.87,15.87,0,0,1,33.067,38.656c0-8.5,6.667-14.666,15.852-14.666H71.887a6.359,6.359,0,0,1-3.187-5.5,6.385,6.385,0,0,0-6.385-6.385H41.062a12.413,12.413,0,0,0-10.749,6.206L15.265,44.378a11.961,11.961,0,0,0,0,11.962l6.981,12.092H61.9C65.658,68.432,69.452,66.462,69.452,62.062Z"/></g></svg>